<svg xmlns="http://www.w3.org/2000/svg" viewBox="0 0 800 1000" role="img"><rect width="800" height="1000" fill="#ddd3be"/><g fill="none" stroke="#393733" stroke-width="13" stroke-linecap="round"><circle cx="205" cy="270" r="55"/><path d="M205 330q-70 180-25 430M205 390l-100 190m105-180 100 170"/><circle cx="410" cy="230" r="50"/><path d="M410 285q40 200 0 480M405 390l-95 185m105-185 115 150"/><circle cx="610" cy="295" r="58"/><path d="M610 355q-55 180-5 405M605 425l-100 155m110-160 80 180"/></g><path d="M90 820q300-50 620 10" fill="none" stroke="#994b37" stroke-width="9"/><rect x="12" y="12" width="776" height="976" fill="none" stroke="#151515" stroke-opacity=".08" stroke-width="4"/></svg>